<?xml version="1.0" encoding="UTF-8" standalone="no"?>
<svg
   width="1200pt"
   height="1200pt"
   version="1.1"
   viewBox="0 0 1200 1200"
   id="svg3118"
   sodipodi:docname="monitor"
   inkscape:version="1.2.2 (b0a8486541, 2022-12-01, custom)"
   xmlns:inkscape="http://www.inkscape.org/namespaces/inkscape"
   xmlns:sodipodi="http://sodipodi.sourceforge.net/DTD/sodipodi-0.dtd"
   xmlns="http://www.w3.org/2000/svg"
   xmlns:svg="http://www.w3.org/2000/svg">
  <defs
     id="defs3122" />
  <sodipodi:namedview
     id="namedview3120"
     pagecolor="#505050"
     bordercolor="#ffffff"
     borderopacity="1"
     inkscape:showpageshadow="0"
     inkscape:pageopacity="0"
     inkscape:pagecheckerboard="1"
     inkscape:deskcolor="#505050"
     inkscape:document-units="pt"
     showgrid="false"
     inkscape:zoom="0.64258329"
     inkscape:cx="518.22076"
     inkscape:cy="671.50828"
     inkscape:window-width="1920"
     inkscape:window-height="930"
     inkscape:window-x="0"
     inkscape:window-y="0"
     inkscape:window-maximized="1"
     inkscape:current-layer="g3116" />
  <g
     id="g3116">
    <path
       d="m675 919.5c217.12 0 393.75-176.62 393.75-393.75s-176.62-393.75-393.75-393.75-393.75 176.62-393.75 393.75 176.62 393.75 393.75 393.75m0-750c196.5 0 356.25 159.75 356.25 356.25s-159.75 356.25-356.25 356.25-356.25-159.75-356.25-356.25 159.75-356.25 356.25-356.25"
       id="path3094" />
    <path
       d="m370.12 220.5c7.125-7.125 7.125-19.125 0-26.625-7.5-7.125-19.125-7.125-26.625 0s-7.5 19.125 0 26.625c7.125 7.5 19.125 7.5 26.625 0"
       id="path3096"
       style="fill:#00b050;fill-opacity:1" />
    <path
       d="m168 1112.2c-7.5 7.5-7.5 19.125 0 26.625 3.75 3.75 8.625 5.625 13.125 5.625s9.75-1.875 13.125-5.625l162.38-162.38 13.125 13.125c3.375 3.375 8.25 5.625 13.125 5.625s9.75-1.875 13.125-5.625l52.875-52.875c69.75 37.875 147.38 57.375 225.38 57.375 120 0 240-45.75 331.5-136.88 182.62-182.62 182.62-480 0-663-161.62-162.75-415.12-183.75-602.25-50.625-8.625 6-10.5 17.625-4.5 26.25s17.625 10.5 26.25 4.5c172.12-122.62 405.38-102.75 555 46.5 168 168 168 441.75 0 609.75-168.38 168-441.75 168-609.75 0-149.62-149.62-169.12-382.88-46.5-555 6-8.25 4.125-20.25-4.5-26.25s-20.25-4.125-26.25 4.5c-106.88 150-114 342.75-28.875 497.25l-52.875 52.875c-7.125 7.125-7.125 19.125 0 26.625l13.125 13.125-162.75 162.38c-7.125 7.125-7.125 19.125 0 26.625 7.5 7.125 19.125 7.125 26.625 0l162.38-162.38 79.5 79.5zm109.5-321.75 132.38 132.75-26.625 26.625-132.38-132.75z"
       id="path3098" />
    <path
       d="m397.88 537c4.875 6.375 124.88 157.12 277.12 157.12s272.25-150.75 277.12-157.12c5.25-6.75 5.25-16.5 0-23.25-5.25-6.375-124.88-157.12-277.12-157.12s-272.25 150.75-277.12 157.12c-5.25 6.75-5.25 16.5 0 23.25m145.88-11.625c0-72.375 58.875-131.25 131.25-131.25s131.25 58.875 131.25 131.25-58.875 131.25-131.25 131.25-131.25-58.875-131.25-131.25m369 0c-15.375 17.25-47.25 50.25-89.625 79.125 12.75-23.625 20.625-50.25 20.625-79.125s-7.875-55.125-20.625-79.125c42.375 28.5 74.25 61.875 89.625 79.125m-385.88-79.125c-12.75 23.625-20.625 50.25-20.625 79.125s7.875 55.5 20.625 79.125c-42.375-28.5-74.25-61.875-89.625-79.125 15.375-17.25 47.25-50.25 89.625-79.125"
       id="path3100" />
    <path
       d="m675 432c-51.75 0-93.75 42-93.75 93.75s42 93.75 93.75 93.75 93.75-42 93.75-93.75-42-93.75-93.75-93.75m0 150c-31.125 0-56.25-25.125-56.25-56.25s25.125-56.25 56.25-56.25 56.25 25.125 56.25 56.25-25.125 56.25-56.25 56.25"
       id="path3102"
       style="fill:#00b050;fill-opacity:1" />
    <path
       d="m675 319.5c10.5 0 18.75-8.25 18.75-18.75v-37.5c0-10.5-8.25-18.75-18.75-18.75s-18.75 8.25-18.75 18.75v37.5c0 10.5 8.25 18.75 18.75 18.75"
       id="path3104"
       style="fill:#00b050;fill-opacity:1" />
    <path
       d="m778.12 346.88c3 1.5 6.375 2.625 9.375 2.625 6.375 0 12.75-3.375 16.125-9.375l18.75-32.625c5.25-9 2.25-20.625-6.75-25.5-9-5.25-20.25-2.25-25.5 6.75l-18.75 32.625c-5.25 9-2.25 20.25 6.75 25.5"
       id="path3106"
       style="fill:#00b050;fill-opacity:1" />
    <path
       d="m546.38 340.12c3.375 6 9.75 9.375 16.125 9.375 3 0 6.375-0.75 9.375-2.625 9-5.25 12-16.5 6.75-25.5l-18.75-32.625c-5.25-9-16.5-12-25.5-6.75s-12 16.5-6.75 25.5z"
       id="path3108"
       style="fill:#00b050;fill-opacity:1" />
    <path
       d="m675 732c-10.5 0-18.75 8.25-18.75 18.75v37.5c0 10.5 8.25 18.75 18.75 18.75s18.75-8.25 18.75-18.75v-37.5c0-10.5-8.25-18.75-18.75-18.75"
       id="path3110"
       style="fill:#00b050;fill-opacity:1" />
    <path
       d="m571.88 704.25c-9-5.25-20.25-2.25-25.5 6.75l-18.75 32.25c-5.25 9-2.25 20.625 6.75 25.5 3 1.875 6.375 2.625 9.375 2.625 6.375 0 12.75-3.375 16.125-9.375l18.75-32.25c5.25-9 2.25-20.25-6.75-25.5"
       id="path3112"
       style="fill:#00b050;fill-opacity:1" />
    <path
       d="m803.62 711c-5.25-9-16.875-12-25.5-6.75-9 5.25-12 16.5-6.75 25.5l18.75 32.25c3.375 6 9.75 9.375 16.125 9.375 3 0 6.375-0.75 9.375-2.625 9-5.25 12-16.5 6.75-25.5z"
       id="path3114"
       style="fill:#00b050;fill-opacity:1" />
  </g>
</svg>
