<?xml version="1.0" encoding="UTF-8" standalone="no"?>
<svg
   width="1200pt"
   height="1200pt"
   version="1.1"
   viewBox="0 0 1200 1200"
   id="svg2092"
   sodipodi:docname="network"
   inkscape:version="1.2.2 (b0a8486541, 2022-12-01, custom)"
   xmlns:inkscape="http://www.inkscape.org/namespaces/inkscape"
   xmlns:sodipodi="http://sodipodi.sourceforge.net/DTD/sodipodi-0.dtd"
   xmlns="http://www.w3.org/2000/svg"
   xmlns:svg="http://www.w3.org/2000/svg">
  <defs
     id="defs2096" />
  <sodipodi:namedview
     id="namedview2094"
     pagecolor="#505050"
     bordercolor="#ffffff"
     borderopacity="1"
     inkscape:showpageshadow="0"
     inkscape:pageopacity="0"
     inkscape:pagecheckerboard="1"
     inkscape:deskcolor="#505050"
     inkscape:document-units="pt"
     showgrid="false"
     inkscape:zoom="0.64258329"
     inkscape:cx="698.74211"
     inkscape:cy="808.45551"
     inkscape:window-width="1920"
     inkscape:window-height="930"
     inkscape:window-x="0"
     inkscape:window-y="0"
     inkscape:window-maximized="1"
     inkscape:current-layer="g2090" />
  <g
     id="g2090">
    <path
       d="m1106.2 712.5h-18.75v-243.75c-0.003906-2.0156-0.33203-4.0156-0.97656-5.9258l-17.773-53.363v-240.71c0-20.098-10.723-38.664-28.125-48.715-17.402-10.047-38.848-10.047-56.25 0-17.402 10.051-28.125 28.617-28.125 48.715v240.71l-17.773 53.363c-0.64453 1.9102-0.97266 3.9102-0.97656 5.9258v243.75h-262.5v-243.75c-0.003906-2.0156-0.33203-4.0156-0.97656-5.9258l-17.773-53.363v-240.71c0-20.098-10.723-38.664-28.125-48.715-17.402-10.047-38.848-10.047-56.25 0-17.402 10.051-28.125 28.617-28.125 48.715v240.71l-17.773 53.363c-0.64453 1.9102-0.97266 3.9102-0.97656 5.9258v243.75h-262.5v-243.75c-0.003906-2.0156-0.33203-4.0156-0.97656-5.9258l-17.773-53.363v-240.71c0-20.098-10.723-38.664-28.125-48.715-17.402-10.047-38.848-10.047-56.25 0-17.402 10.051-28.125 28.617-28.125 48.715v240.71l-17.773 53.363c-0.64453 1.9102-0.97266 3.9102-0.97656 5.9258v243.75h-18.75c-14.918 0-29.227 5.9258-39.773 16.477-10.551 10.547-16.477 24.855-16.477 39.773v187.5c0 14.918 5.9258 29.227 16.477 39.773 10.547 10.551 24.855 16.477 39.773 16.477h18.75v56.25c0 4.9727 1.9766 9.7422 5.4922 13.258 3.5156 3.5156 8.2852 5.4922 13.258 5.4922h112.5c4.9727 0 9.7422-1.9766 13.258-5.4922 3.5156-3.5156 5.4922-8.2852 5.4922-13.258v-56.25h675v56.25c0 4.9727 1.9766 9.7422 5.4922 13.258 3.5156 3.5156 8.2852 5.4922 13.258 5.4922h112.5c4.9727 0 9.7422-1.9766 13.258-5.4922 3.5156-3.5156 5.4922-8.2852 5.4922-13.258v-56.25h18.75c14.918 0 29.227-5.9258 39.773-16.477 10.551-10.547 16.477-24.855 16.477-39.773v-187.5c0-14.918-5.9258-29.227-16.477-39.773-10.547-10.551-24.855-16.477-39.773-16.477zm-113.48-294.07c0.64453-1.9102 0.97266-3.9102 0.97656-5.9258v-243.75c0-6.6992 3.5742-12.887 9.375-16.238 5.8008-3.3477 12.949-3.3477 18.75 0 5.8008 3.3516 9.375 9.5391 9.375 16.238v243.75c0.003906 2.0156 0.33203 4.0156 0.97656 5.9258l17.773 53.363v128.21h-75v-128.21zm-17.773 219.07h75v75h-75zm-394.73-219.07c0.64453-1.9102 0.97266-3.9102 0.97656-5.9258v-243.75c0-6.6992 3.5742-12.887 9.375-16.238 5.8008-3.3477 12.949-3.3477 18.75 0 5.8008 3.3516 9.375 9.5391 9.375 16.238v243.75c0.003906 2.0156 0.33203 4.0156 0.97656 5.9258l17.773 53.363v128.21h-75v-128.21zm-17.773 219.07h75v75h-75zm-394.73-219.07c0.64453-1.9102 0.97266-3.9102 0.97656-5.9258v-243.75c0-6.6992 3.5742-12.887 9.375-16.238 5.8008-3.3477 12.949-3.3477 18.75 0 5.8008 3.3516 9.375 9.5391 9.375 16.238v243.75c0.003906 2.0156 0.33203 4.0156 0.97656 5.9258l17.773 53.363v128.21h-75v-128.21zm-17.773 219.07h75v75h-75zm75 412.5h-75v-37.5h75zm825 0h-75v-37.5h75zm75-93.75c0 4.9727-1.9766 9.7422-5.4922 13.258-3.5156 3.5156-8.2852 5.4922-13.258 5.4922h-1012.5c-4.9727 0-9.7422-1.9766-13.258-5.4922-3.5156-3.5156-5.4922-8.2852-5.4922-13.258v-187.5c0-4.9727 1.9766-9.7422 5.4922-13.258 3.5156-3.5156 8.2852-5.4922 13.258-5.4922h1012.5c4.9727 0 9.7422 1.9766 13.258 5.4922 3.5156 3.5156 5.4922 8.2852 5.4922 13.258z"
       id="path2074" />
    <path
       d="m1031.2 806.25c-14.918 0-29.227 5.9258-39.773 16.477-10.551 10.547-16.477 24.855-16.477 39.773s5.9258 29.227 16.477 39.773c10.547 10.551 24.855 16.477 39.773 16.477s29.227-5.9258 39.773-16.477c10.551-10.547 16.477-24.855 16.477-39.773s-5.9258-29.227-16.477-39.773c-10.547-10.551-24.855-16.477-39.773-16.477zm0 75c-4.9727 0-9.7422-1.9766-13.258-5.4922-3.5156-3.5156-5.4922-8.2852-5.4922-13.258s1.9766-9.7422 5.4922-13.258c3.5156-3.5156 8.2852-5.4922 13.258-5.4922s9.7422 1.9766 13.258 5.4922c3.5156 3.5156 5.4922 8.2852 5.4922 13.258s-1.9766 9.7422-5.4922 13.258c-3.5156 3.5156-8.2852 5.4922-13.258 5.4922z"
       id="path2076"
       style="fill:#00b050;fill-opacity:1" />
    <path
       d="m412.5 843.75h56.25v37.5h-56.25z"
       id="path2078"
       style="fill:#00b050;fill-opacity:1" />
    <path
       d="m525 843.75h56.25v37.5h-56.25z"
       id="path2080"
       style="fill:#00b050;fill-opacity:1" />
    <path
       d="m637.5 843.75h56.25v37.5h-56.25z"
       id="path2082"
       style="fill:#00b050;fill-opacity:1" />
    <path
       d="m750 843.75h56.25v37.5h-56.25z"
       id="path2084"
       style="fill:#00b050;fill-opacity:1" />
    <path
       d="m862.5 843.75h56.25v37.5h-56.25z"
       id="path2086"
       style="fill:#00b050;fill-opacity:1" />
    <path
       d="m131.25 843.75h56.25v37.5h-56.25z"
       id="path2088"
       style="fill:#00b050;fill-opacity:1" />
  </g>
</svg>
