<?xml version="1.0" encoding="UTF-8" standalone="no"?>
<svg
   width="1200pt"
   height="1200pt"
   version="1.1"
   viewBox="0 0 1200 1200"
   id="svg67"
   sodipodi:docname="vault.svg"
   inkscape:export-filename="../d105307f/vault.png"
   inkscape:export-xdpi="96"
   inkscape:export-ydpi="96"
   inkscape:version="1.2.2 (b0a8486541, 2022-12-01, custom)"
   xmlns:inkscape="http://www.inkscape.org/namespaces/inkscape"
   xmlns:sodipodi="http://sodipodi.sourceforge.net/DTD/sodipodi-0.dtd"
   xmlns="http://www.w3.org/2000/svg"
   xmlns:svg="http://www.w3.org/2000/svg">
  <defs
     id="defs71" />
  <sodipodi:namedview
     id="namedview69"
     pagecolor="#505050"
     bordercolor="#ffffff"
     borderopacity="1"
     inkscape:showpageshadow="0"
     inkscape:pageopacity="0"
     inkscape:pagecheckerboard="1"
     inkscape:deskcolor="#505050"
     inkscape:document-units="pt"
     showgrid="false"
     inkscape:zoom="4"
     inkscape:cx="613.25"
     inkscape:cy="801.625"
     inkscape:window-width="1920"
     inkscape:window-height="930"
     inkscape:window-x="0"
     inkscape:window-y="0"
     inkscape:window-maximized="1"
     inkscape:current-layer="g65" />
  <g
     id="g65">
    <path
       d="m1005 495h30v150h-30z"
       id="path59" />
    <path
       d="m1065 960h-930c-33 0-60-27-60-60v-660c0-33 27-60 60-60h930c33 0 60 27 60 60v660c0 33-27 60-60 60zm-930-750c-16.5 0-30 13.5-30 30v660c0 16.5 13.5 30 30 30h930c16.5 0 30-13.5 30-30v-660c0-16.5-13.5-30-30-30z"
       id="path31" />
    <path
       d="m990 870h-780c-25.5 0-45-19.5-45-45v-510c0-25.5 19.5-45 45-45h780c25.5 0 45 19.5 45 45v90h-30v-90c0-9-6-15-15-15h-780c-9 0-15 6-15 15v510c0 9 6 15 15 15h780c9 0 15-6 15-15v-75h30v75c0 25.5-19.5 45-45 45z"
       id="path33" />
    <path
       d="m465 735c-91.5 0-165-73.5-165-165s73.5-165 165-165 165 73.5 165 165-73.5 165-165 165zm0-300c-75 0-135 60-135 135s60 135 135 135 135-60 135-135-60-135-135-135z"
       id="path35" />
    <path
       d="m465 645c-42 0-75-33-75-75s33-75 75-75 75 33 75 75-33 75-75 75zm0-120c-25.5 0-45 19.5-45 45s19.5 45 45 45 45-19.5 45-45-19.5-45-45-45z"
       id="path37"
       style="fill:#00b050;fill-opacity:1" />
    <path
       d="m315 555h45v30h-45z"
       id="path39" />
    <path
       d="m570 555h45v30h-45z"
       id="path41" />
    <path
       d="m450 420h30v45h-30z"
       id="path43" />
    <path
       d="m450 675h30v45h-30z"
       id="path45" />
    <path
       d="m369.54 453.54 31.82 31.82-21.215 21.215-31.82-31.82z"
       id="path47" />
    <path
       d="m549.86 633.41 31.82 31.82-21.215 21.215-31.82-31.82z"
       id="path49" />
    <path
       d="m560.24 453.32 21.215 21.215-31.82 31.82-21.215-21.215z"
       id="path51" />
    <path
       d="m380.37 633.63 21.215 21.215-31.82 31.82-21.215-21.215z"
       id="path53" />
    <path
       d="m1065 510h-90v-120h90zm-60-30h30v-60h-30z"
       id="path55"
       style="fill:#00b050;fill-opacity:1" />
    <path
       d="m1065 750h-90v-120h90zm-60-30h30v-60h-30z"
       id="path57"
       style="fill:#00b050;fill-opacity:1" />
    <path
       d="m255 1020c-33 0-60-27-60-60v-30h120v30c0 33-27 60-60 60zm-30-60c0 16.5 13.5 30 30 30s30-13.5 30-30z"
       id="path61" />
    <path
       d="m945 1020c-33 0-60-27-60-60v-30h120v30c0 33-27 60-60 60zm-30-60c0 16.5 13.5 30 30 30s30-13.5 30-30z"
       id="path63" />
  </g>
</svg>
